<?xml version="1.0" encoding="UTF-8" standalone="no"?>
<!-- Created with Inkscape (http://www.inkscape.org/) -->

<svg
   xmlns:dc="http://purl.org/dc/elements/1.1/"
   xmlns:cc="http://creativecommons.org/ns#"
   xmlns:rdf="http://www.w3.org/1999/02/22-rdf-syntax-ns#"
   xmlns:svg="http://www.w3.org/2000/svg"
   xmlns="http://www.w3.org/2000/svg"
   version="1.1"
   width="3860.345"
   height="1659.1296"
   id="svg2">
  <defs
     id="defs4" />
  <metadata
     id="metadata7">
    <rdf:RDF>
      <cc:Work
         rdf:about="">
        <dc:format>image/svg+xml</dc:format>
        <dc:type
           rdf:resource="http://purl.org/dc/dcmitype/StillImage" />
        <dc:title></dc:title>
      </cc:Work>
    </rdf:RDF>
  </metadata>
  <path
     d="m 3289.8978,1156.6298 c -284.2353,-85.2692 -435.151,-115.6289 -772.7141,36.4263 -1142.2773,639.9885 -968.3271,38.8416 -1157.8825,-445.5499"
     id="path3887"
     style="fill:none;stroke:#0083d7;stroke-width:20;stroke-linecap:butt;stroke-linejoin:miter;stroke-miterlimit:4;stroke-opacity:1;stroke-dasharray:none" />
  <text
     x="839.61731"
     y="322.9263"
     transform="matrix(0.70710678,0.70710678,-0.70710678,0.70710678,0,0)"
     id="text2985"
     xml:space="preserve"
     style="font-size:40px;font-style:normal;font-weight:normal;line-height:125%;letter-spacing:0px;word-spacing:0px;fill:#000000;fill-opacity:1;stroke:none;font-family:Sans"><tspan
       x="839.61731"
       y="322.9263"
       id="tspan2987">JAPH</tspan></text>
  <text
     x="2664.5959"
     y="-1445.9811"
     transform="matrix(0.70710678,0.70710678,-0.70710678,0.70710678,0,0)"
     id="text2989"
     xml:space="preserve"
     style="font-size:40px;font-style:normal;font-weight:normal;line-height:125%;letter-spacing:0px;word-spacing:0px;fill:#000000;fill-opacity:1;stroke:none;font-family:Sans"><tspan
       x="2664.5959"
       y="-1445.9811"
       id="tspan2991">ELEVATOR</tspan></text>
  <text
     x="1629.8807"
     y="-1520.0303"
     transform="matrix(0.70710678,0.70710678,-0.70710678,0.70710678,0,0)"
     id="text2993"
     xml:space="preserve"
     style="font-size:40px;font-style:normal;font-weight:normal;line-height:125%;letter-spacing:0px;word-spacing:0px;fill:#000000;fill-opacity:1;stroke:none;font-family:Sans"><tspan
       x="1629.8807"
       y="-1520.0303"
       id="tspan2995">ONELINER</tspan></text>
  <text
     x="604.85138"
     y="563.97852"
     transform="matrix(0.70710678,0.70710678,-0.70710678,0.70710678,0,0)"
     id="text2997"
     xml:space="preserve"
     style="font-size:40px;font-style:normal;font-weight:normal;line-height:125%;letter-spacing:0px;word-spacing:0px;fill:#000000;fill-opacity:1;stroke:none;font-family:Sans"><tspan
       x="604.85138"
       y="563.97852"
       id="tspan2999">intro</tspan></text>
  <text
     x="1418.1398"
     y="-242.21335"
     transform="matrix(0.70710678,0.70710678,-0.70710678,0.70710678,0,0)"
     id="text3001"
     xml:space="preserve"
     style="font-size:40px;font-style:normal;font-weight:normal;line-height:125%;letter-spacing:0px;word-spacing:0px;fill:#000000;fill-opacity:1;stroke:none;font-family:Sans"><tspan
       x="1418.1398"
       y="-242.21335"
       id="tspan3003">end-weight</tspan></text>
  <text
     x="2213.9006"
     y="-1194.7285"
     transform="matrix(0.70710678,0.70710678,-0.70710678,0.70710678,0,0)"
     id="text3005"
     xml:space="preserve"
     style="font-size:40px;font-style:normal;font-weight:normal;line-height:125%;letter-spacing:0px;word-spacing:0px;fill:#000000;fill-opacity:1;stroke:none;font-family:Sans"><tspan
       x="2213.9006"
       y="-1194.7285"
       id="tspan3007">lazy</tspan></text>
  <text
     x="2250.0408"
     y="-1942.2367"
     transform="matrix(0.70710678,0.70710678,-0.70710678,0.70710678,0,0)"
     id="text3009"
     xml:space="preserve"
     style="font-size:40px;font-style:normal;font-weight:normal;line-height:125%;letter-spacing:0px;word-spacing:0px;fill:#000000;fill-opacity:1;stroke:none;font-family:Sans"><tspan
       x="2250.0408"
       y="-1942.2367"
       id="tspan3011">HIGHLIGHT</tspan></text>
  <text
     x="2363.9617"
     y="-1273.3818"
     transform="matrix(0.70710678,0.70710678,-0.70710678,0.70710678,0,0)"
     id="text3013"
     xml:space="preserve"
     style="font-size:40px;font-style:normal;font-weight:normal;line-height:125%;letter-spacing:0px;word-spacing:0px;fill:#000000;fill-opacity:1;stroke:none;font-family:Sans"><tspan
       x="2363.9617"
       y="-1273.3818"
       id="tspan3015">FRINGE</tspan></text>
  <text
     x="1273.1927"
     y="-113.44394"
     transform="matrix(0.70710678,0.70710678,-0.70710678,0.70710678,0,0)"
     id="text3021"
     xml:space="preserve"
     style="font-size:40px;font-style:normal;font-weight:normal;line-height:125%;letter-spacing:0px;word-spacing:0px;fill:#000000;fill-opacity:1;stroke:none;font-family:Sans"><tspan
       x="1273.1927"
       y="-113.44394"
       id="tspan3023">fail-fast</tspan></text>
  <text
     x="1901.5322"
     y="-1023.9648"
     transform="matrix(0.70710678,0.70710678,-0.70710678,0.70710678,0,0)"
     id="text3025"
     xml:space="preserve"
     style="font-size:40px;font-style:normal;font-weight:normal;line-height:125%;letter-spacing:0px;word-spacing:0px;fill:#000000;fill-opacity:1;stroke:none;font-family:Sans"><tspan
       x="1901.5322"
       y="-1023.9648"
       id="tspan3027">nesting</tspan></text>
  <text
     x="2219.7241"
     y="-96.094696"
     transform="matrix(0.70710678,0.70710678,-0.70710678,0.70710678,0,0)"
     id="text3029"
     xml:space="preserve"
     style="font-size:40px;font-style:normal;font-weight:normal;line-height:125%;letter-spacing:0px;word-spacing:0px;fill:#000000;fill-opacity:1;stroke:none;font-family:Sans"><tspan
       x="2219.7241"
       y="-96.094696"
       id="tspan3031">abstraction</tspan></text>
  <text
     x="2507.1814"
     y="-420.44138"
     transform="matrix(0.70710678,0.70710678,-0.70710678,0.70710678,0,0)"
     id="text3033"
     xml:space="preserve"
     style="font-size:40px;font-style:normal;font-weight:normal;line-height:125%;letter-spacing:0px;word-spacing:0px;fill:#000000;fill-opacity:1;stroke:none;font-family:Sans"><tspan
       x="2507.1814"
       y="-420.44138"
       id="tspan3035">dry</tspan></text>
  <text
     x="2641.8203"
     y="-806.28876"
     transform="matrix(0.70710678,0.70710678,-0.70710678,0.70710678,0,0)"
     id="text3037"
     xml:space="preserve"
     style="font-size:40px;font-style:normal;font-weight:normal;line-height:125%;letter-spacing:0px;word-spacing:0px;fill:#000000;fill-opacity:1;stroke:none;font-family:Sans"><tspan
       x="2641.8203"
       y="-806.28876"
       id="tspan3039">tell-vs-ask</tspan></text>
  <text
     x="2782.8445"
     y="-1136.1558"
     transform="matrix(0.70710678,0.70710678,-0.70710678,0.70710678,0,0)"
     id="text3041"
     xml:space="preserve"
     style="font-size:40px;font-style:normal;font-weight:normal;line-height:125%;letter-spacing:0px;word-spacing:0px;fill:#000000;fill-opacity:1;stroke:none;font-family:Sans"><tspan
       x="2782.8445"
       y="-1136.1558"
       id="tspan3043">leakage</tspan></text>
  <text
     x="1788.2651"
     y="-875.36212"
     transform="matrix(0.70710678,0.70710678,-0.70710678,0.70710678,0,0)"
     id="text3045"
     xml:space="preserve"
     style="font-size:40px;font-style:normal;font-weight:normal;line-height:125%;letter-spacing:0px;word-spacing:0px;fill:#000000;fill-opacity:1;stroke:none;font-family:Sans"><tspan
       x="1788.2651"
       y="-875.36212"
       id="tspan3047">BOT</tspan></text>
  <text
     x="2517.6401"
     y="-1360.3672"
     transform="matrix(0.70710678,0.70710678,-0.70710678,0.70710678,0,0)"
     id="text3049"
     xml:space="preserve"
     style="font-size:40px;font-style:normal;font-weight:normal;line-height:125%;letter-spacing:0px;word-spacing:0px;fill:#000000;fill-opacity:1;stroke:none;font-family:Sans"><tspan
       x="2517.6401"
       y="-1360.3672"
       id="tspan3051">observe</tspan></text>
  <text
     x="2835.1682"
     y="-1598.9128"
     transform="matrix(0.70710678,0.70710678,-0.70710678,0.70710678,0,0)"
     id="text3053"
     xml:space="preserve"
     style="font-size:40px;font-style:normal;font-weight:normal;line-height:125%;letter-spacing:0px;word-spacing:0px;fill:#000000;fill-opacity:1;stroke:none;font-family:Sans"><tspan
       x="2835.1682"
       y="-1598.9128"
       id="tspan3055">compose</tspan></text>
  <path
     d="m 10.729779,753.2205 1345.714321,0"
     id="path3057"
     style="fill:none;stroke:#003399;stroke-width:20;stroke-linecap:butt;stroke-linejoin:miter;stroke-miterlimit:4;stroke-opacity:1;stroke-dasharray:none" />
  <path
     d="m 22.158349,770.3633 a 17.142857,17.142857 0 1 0 0,-34.2857 17.142857,17.142857 0 1 0 0,34.2857 z"
     id="path3827"
     style="fill:#ffffff;fill-opacity:1;stroke:#003399;stroke-width:10;stroke-miterlimit:4;stroke-opacity:1;stroke-dasharray:none" />
  <path
     d="m 345.01549,770.3633 a 17.142857,17.142857 0 1 0 0,-34.2857 17.142857,17.142857 0 1 0 0,34.2857 z"
     id="path3831"
     style="fill:#ffffff;fill-opacity:1;stroke:#003399;stroke-width:10;stroke-miterlimit:4;stroke-opacity:1;stroke-dasharray:none" />
  <text
     x="970.75403"
     y="192.16531"
     transform="matrix(0.70710678,0.70710678,-0.70710678,0.70710678,0,0)"
     id="text3833"
     xml:space="preserve"
     style="font-size:40px;font-style:normal;font-weight:normal;line-height:125%;letter-spacing:0px;word-spacing:0px;fill:#000000;fill-opacity:1;stroke:none;font-family:Sans"><tspan
       x="970.75403"
       y="192.16531"
       id="tspan3835">test</tspan></text>
  <text
     x="1112.4937"
     y="47.175934"
     transform="matrix(0.70710678,0.70710678,-0.70710678,0.70710678,0,0)"
     id="text3837"
     xml:space="preserve"
     style="font-size:40px;font-style:normal;font-weight:normal;line-height:125%;letter-spacing:0px;word-spacing:0px;fill:#000000;fill-opacity:1;stroke:none;font-family:Sans"><tspan
       x="1112.4937"
       y="47.175934"
       id="tspan3839">ROMAN</tspan></text>
  <text
     x="1677.2061"
     y="-720.42969"
     transform="matrix(0.70710678,0.70710678,-0.70710678,0.70710678,0,0)"
     id="text3841"
     xml:space="preserve"
     style="font-size:40px;font-style:normal;font-weight:normal;line-height:125%;letter-spacing:0px;word-spacing:0px;fill:#000000;fill-opacity:1;stroke:none;font-family:Sans"><tspan
       x="1677.2061"
       y="-720.42969"
       id="tspan3843">test-2</tspan></text>
  <text
     x="1308.6754"
     y="-1053.3181"
     transform="matrix(0.70710678,0.70710678,-0.70710678,0.70710678,0,0)"
     id="text3845"
     xml:space="preserve"
     style="font-size:40px;font-style:normal;font-weight:normal;line-height:125%;letter-spacing:0px;word-spacing:0px;fill:#000000;fill-opacity:1;stroke:none;font-family:Sans"><tspan
       x="1308.6754"
       y="-1053.3181"
       id="tspan3847">syntax</tspan></text>
  <text
     x="1768.082"
     y="-1635.0786"
     transform="matrix(0.70710678,0.70710678,-0.70710678,0.70710678,0,0)"
     id="text3849"
     xml:space="preserve"
     style="font-size:40px;font-style:normal;font-weight:normal;line-height:125%;letter-spacing:0px;word-spacing:0px;fill:#000000;fill-opacity:1;stroke:none;font-family:Sans"><tspan
       x="1768.082"
       y="-1635.0786"
       id="tspan3851">regex</tspan></text>
  <text
     x="1515.3376"
     y="-1388.5629"
     transform="matrix(0.70710678,0.70710678,-0.70710678,0.70710678,0,0)"
     id="text3853"
     xml:space="preserve"
     style="font-size:40px;font-style:normal;font-weight:normal;line-height:125%;letter-spacing:0px;word-spacing:0px;fill:#000000;fill-opacity:1;stroke:none;font-family:Sans"><tspan
       x="1515.3376"
       y="-1388.5629"
       id="tspan3855">processing</tspan></text>
  <text
     x="2084.8247"
     y="-1867.2957"
     transform="matrix(0.70710678,0.70710678,-0.70710678,0.70710678,0,0)"
     id="text3857"
     xml:space="preserve"
     style="font-size:40px;font-style:normal;font-weight:normal;line-height:125%;letter-spacing:0px;word-spacing:0px;fill:#000000;fill-opacity:1;stroke:none;font-family:Sans"><tspan
       x="2084.8247"
       y="-1867.2957"
       id="tspan3859">grammar</tspan></text>
  <text
     x="2440.7856"
     y="-2020.4563"
     transform="matrix(0.70710678,0.70710678,-0.70710678,0.70710678,0,0)"
     id="text3861"
     xml:space="preserve"
     style="font-size:40px;font-style:normal;font-weight:normal;line-height:125%;letter-spacing:0px;word-spacing:0px;fill:#000000;fill-opacity:1;stroke:none;font-family:Sans"><tspan
       x="2440.7856"
       y="-2020.4563"
       id="tspan3863">dsl</tspan></text>
  <path
     d="m 547.87263,770.3633 a 17.142857,17.142857 0 1 0 0,-34.2857 17.142857,17.142857 0 1 0 0,34.2857 z"
     id="path3865"
     style="fill:#ffffff;fill-opacity:1;stroke:#003399;stroke-width:10;stroke-miterlimit:4;stroke-opacity:1;stroke-dasharray:none" />
  <path
     d="m 753.58692,770.3633 a 17.142857,17.142857 0 1 0 0,-34.2857 17.142857,17.142857 0 1 0 0,34.2857 z"
     id="path3867"
     style="fill:#ffffff;fill-opacity:1;stroke:#003399;stroke-width:10;stroke-miterlimit:4;stroke-opacity:1;stroke-dasharray:none" />
  <path
     d="m 970.72982,770.3633 a 17.142857,17.142857 0 1 0 0,-34.2857 17.142857,17.142857 0 1 0 0,34.2857 z"
     id="path3869"
     style="fill:#ffffff;fill-opacity:1;stroke:#003399;stroke-width:10;stroke-miterlimit:4;stroke-opacity:1;stroke-dasharray:none" />
  <path
     d="m 1156.4441,770.3633 a 17.142857,17.142857 0 1 0 0,-34.2857 17.142857,17.142857 0 1 0 0,34.2857 z"
     id="path3871"
     style="fill:#ffffff;fill-opacity:1;stroke:#003399;stroke-width:10;stroke-miterlimit:4;stroke-opacity:1;stroke-dasharray:none" />
  <path
     d="M 3323.9085,320.5765 C 2933.7103,-34.2906 1870.1221,-32.2044 1667.8727,118.9348 1426.0788,248.9177 1385.402,496.7968 1359.3012,753.2205"
     id="path3873"
     style="fill:none;stroke:#009900;stroke-width:20;stroke-linecap:butt;stroke-linejoin:miter;stroke-miterlimit:4;stroke-opacity:1;stroke-dasharray:none" />
  <path
     d="m 1362.1584,753.2205 c 990.6747,-563.1743 1303.3145,296.7295 1967.6236,0"
     id="path3875"
     style="fill:none;stroke:#ff3300;stroke-width:20;stroke-linecap:butt;stroke-linejoin:miter;stroke-miterlimit:4;stroke-opacity:1;stroke-dasharray:none" />
  <path
     d="m 1359.3012,787.5062 a 34.28575,34.28575 0 0 0 0,-68.5715 34.28575,34.28575 0 1 0 0,68.5715 z"
     id="path3879"
     style="fill:#ffffff;fill-opacity:1;stroke:#000000;stroke-width:10;stroke-miterlimit:4;stroke-opacity:1;stroke-dasharray:none" />
  <text
     x="1581.5857"
     y="-434.74496"
     transform="matrix(0.70710678,0.70710678,-0.70710678,0.70710678,0,0)"
     id="text3881"
     xml:space="preserve"
     style="font-size:40px;font-style:normal;font-weight:normal;line-height:125%;letter-spacing:0px;word-spacing:0px;fill:#000000;fill-opacity:1;stroke:none;font-family:Sans"><tspan
       x="1581.5857"
       y="-434.74496"
       id="tspan3883">central</tspan></text>
  <path
     d="m 1668.3326,135.8466 a 17.142857,17.142857 0 1 0 0,-34.2857 17.142857,17.142857 0 1 0 0,34.2857 z"
     id="path3889"
     style="fill:#ffffff;fill-opacity:1;stroke:#009900;stroke-width:10;stroke-miterlimit:4;stroke-opacity:1;stroke-dasharray:none" />
  <path
     d="m 1890.9602,62.006 a 17.1429,17.1429 0 0 0 0,-34.2858 17.1429,17.1429 0 1 0 0,34.2858 z"
     id="path3891"
     style="fill:#ffffff;fill-opacity:1;stroke:#009900;stroke-width:10;stroke-miterlimit:4;stroke-opacity:1;stroke-dasharray:none" />
  <path
     d="m 2093.4794,44.9658 a 17.142857,17.142857 0 1 0 0,-34.2857 17.142857,17.142857 0 1 0 0,34.2857 z"
     id="path3893"
     style="fill:#ffffff;fill-opacity:1;stroke:#009900;stroke-width:10;stroke-miterlimit:4;stroke-opacity:1;stroke-dasharray:none" />
  <path
     d="m 2284.6384,39.2858 a 17.1429,17.1429 0 0 0 0,-34.2858 17.1429,17.1429 0 1 0 0,34.2858 z"
     id="path3895"
     style="fill:#ffffff;fill-opacity:1;stroke:#009900;stroke-width:10;stroke-miterlimit:4;stroke-opacity:1;stroke-dasharray:none" />
  <path
     d="m 2651.8077,76.2061 a 17.142857,17.142857 0 1 0 0,-34.2857 17.142857,17.142857 0 1 0 0,34.2857 z"
     id="path3897"
     style="fill:#ffffff;fill-opacity:1;stroke:#009900;stroke-width:10;stroke-miterlimit:4;stroke-opacity:1;stroke-dasharray:none" />
  <path
     d="m 2834.2184,110.2864 a 17.142857,17.142857 0 1 0 0,-34.2857 17.142857,17.142857 0 1 0 0,34.2857 z"
     id="path3899"
     style="fill:#ffffff;fill-opacity:1;stroke:#009900;stroke-width:10;stroke-miterlimit:4;stroke-opacity:1;stroke-dasharray:none" />
  <path
     d="m 3002.6572,161.4068 a 17.142857,17.142857 0 1 0 0,-34.2857 17.142857,17.142857 0 1 0 0,34.2857 z"
     id="path3901"
     style="fill:#ffffff;fill-opacity:1;stroke:#009900;stroke-width:10;stroke-miterlimit:4;stroke-opacity:1;stroke-dasharray:none" />
  <path
     d="m 3168.6486,232.4074 a 17.142857,17.142857 0 1 0 0,-34.2857 17.142857,17.142857 0 1 0 0,34.2857 z"
     id="path3903"
     style="fill:#ffffff;fill-opacity:1;stroke:#009900;stroke-width:10;stroke-miterlimit:4;stroke-opacity:1;stroke-dasharray:none" />
  <path
     d="m 1680.1286,628.8115 a 17.142857,17.142857 0 1 0 0,-34.2857 17.142857,17.142857 0 1 0 0,34.2857 z"
     id="path3905"
     style="fill:#ffffff;fill-opacity:1;stroke:#ff3300;stroke-width:10;stroke-miterlimit:4;stroke-opacity:1;stroke-dasharray:none" />
  <path
     d="m 1859.4709,590.4745 a 17.142857,17.142857 0 1 0 0,-34.2857 17.142857,17.142857 0 1 0 0,34.2857 z"
     id="path3907"
     style="fill:#ffffff;fill-opacity:1;stroke:#ff3300;stroke-width:10;stroke-miterlimit:4;stroke-opacity:1;stroke-dasharray:none" />
  <path
     d="m 2056.4086,575.7296 a 17.1429,17.1429 0 0 0 0,-34.2858 17.1429,17.1429 0 1 0 0,34.2858 z"
     id="path3909"
     style="fill:#ffffff;fill-opacity:1;stroke:#ff3300;stroke-width:10;stroke-miterlimit:4;stroke-opacity:1;stroke-dasharray:none" />
  <path
     d="m 2235.6523,599.3215 a 17.142857,17.142857 0 1 0 0,-34.2857 17.142857,17.142857 0 1 0 0,34.2857 z"
     id="path3911"
     style="fill:#ffffff;fill-opacity:1;stroke:#ff3300;stroke-width:10;stroke-miterlimit:4;stroke-opacity:1;stroke-dasharray:none" />
  <path
     d="m 2407.3756,652.4035 a 17.1429,17.1429 0 0 0 0,-34.2858 17.1429,17.1429 0 1 0 0,34.2858 z"
     id="path3913"
     style="fill:#ffffff;fill-opacity:1;stroke:#ff3300;stroke-width:10;stroke-miterlimit:4;stroke-opacity:1;stroke-dasharray:none" />
  <path
     d="m 2570.4491,711.3834 a 17.142857,17.142857 0 1 0 0,-34.2857 17.142857,17.142857 0 1 0 0,34.2857 z"
     id="path3915"
     style="fill:#ffffff;fill-opacity:1;stroke:#ff3300;stroke-width:10;stroke-miterlimit:4;stroke-opacity:1;stroke-dasharray:none" />
  <path
     d="m 2740.7473,776.2613 a 17.142857,17.142857 0 1 0 0,-34.2857 17.142857,17.142857 0 1 0 0,34.2857 z"
     id="path3917"
     style="fill:#ffffff;fill-opacity:1;stroke:#ff3300;stroke-width:10;stroke-miterlimit:4;stroke-opacity:1;stroke-dasharray:none" />
  <path
     d="m 2904.1166,820.4963 a 17.1429,17.1429 0 0 0 0,-34.2858 17.1429,17.1429 0 1 0 0,34.2858 z"
     id="path3919"
     style="fill:#ffffff;fill-opacity:1;stroke:#ff3300;stroke-width:10;stroke-miterlimit:4;stroke-opacity:1;stroke-dasharray:none" />
  <path
     d="m 1638.8426,1455.3219 a 17.142857,17.142857 0 1 0 0,-34.2857 17.142857,17.142857 0 1 0 0,34.2857 z"
     id="path3921"
     style="fill:#ffffff;fill-opacity:1;stroke:#0083d7;stroke-width:10;stroke-miterlimit:4;stroke-opacity:1;stroke-dasharray:none" />
  <path
     d="m 1830.7649,1484.8119 a 17.142857,17.142857 0 1 0 0,-34.2857 17.142857,17.142857 0 1 0 0,34.2857 z"
     id="path3927"
     style="fill:#ffffff;fill-opacity:1;stroke:#0083d7;stroke-width:10;stroke-miterlimit:4;stroke-opacity:1;stroke-dasharray:none" />
  <path
     d="m 2026.9646,1443.5259 a 17.142857,17.142857 0 1 0 0,-34.2857 17.142857,17.142857 0 1 0 0,34.2857 z"
     id="path3929"
     style="fill:#ffffff;fill-opacity:1;stroke:#0083d7;stroke-width:10;stroke-miterlimit:4;stroke-opacity:1;stroke-dasharray:none" />
  <path
     d="m 2219.1791,1363.903 a 17.142857,17.142857 0 1 0 0,-34.2857 17.142857,17.142857 0 1 0 0,34.2857 z"
     id="path3931"
     style="fill:#ffffff;fill-opacity:1;stroke:#0083d7;stroke-width:10;stroke-miterlimit:4;stroke-opacity:1;stroke-dasharray:none" />
  <path
     d="m 2409.7729,1272.4842 a 17.142857,17.142857 0 1 0 0,-34.2857 17.142857,17.142857 0 1 0 0,34.2857 z"
     id="path3933"
     style="fill:#ffffff;fill-opacity:1;stroke:#0083d7;stroke-width:10;stroke-miterlimit:4;stroke-opacity:1;stroke-dasharray:none" />
  <path
     d="m 2569.2563,1186.9633 a 17.142857,17.142857 0 1 0 0,-34.2857 17.142857,17.142857 0 1 0 0,34.2857 z"
     id="path3935"
     style="fill:#ffffff;fill-opacity:1;stroke:#0083d7;stroke-width:10;stroke-miterlimit:4;stroke-opacity:1;stroke-dasharray:none" />
  <path
     d="m 2757.9374,1125.0343 a 17.142857,17.142857 0 1 0 0,-34.2857 17.142857,17.142857 0 1 0 0,34.2857 z"
     id="path3937"
     style="fill:#ffffff;fill-opacity:1;stroke:#0083d7;stroke-width:10;stroke-miterlimit:4;stroke-opacity:1;stroke-dasharray:none" />
  <path
     d="m 2929.8544,1101.4151 a 17.142857,17.142857 0 1 0 0,-34.2857 17.142857,17.142857 0 1 0 0,34.2857 z"
     id="path3939"
     style="fill:#ffffff;fill-opacity:1;stroke:#0083d7;stroke-width:10;stroke-miterlimit:4;stroke-opacity:1;stroke-dasharray:none" />
  <text
     x="3030.9727"
     y="-1382.6895"
     transform="matrix(0.70710678,0.70710678,-0.70710678,0.70710678,0,0)"
     id="text3169"
     xml:space="preserve"
     style="font-size:40px;font-style:normal;font-weight:normal;line-height:125%;letter-spacing:0px;word-spacing:0px;fill:#000000;fill-opacity:1;stroke:none;font-family:Sans"><tspan
       x="3030.9727"
       y="-1382.6895"
       id="tspan3171">anemic</tspan></text>
  <text
     x="1395.5385"
     y="-1245.2467"
     transform="matrix(0.70710678,0.70710678,-0.70710678,0.70710678,0,0)"
     id="text3083"
     xml:space="preserve"
     style="font-size:40px;font-style:normal;font-weight:normal;line-height:125%;letter-spacing:0px;word-spacing:0px;fill:#000000;fill-opacity:1;stroke:none;font-family:Sans"><tspan
       x="1395.5385"
       y="-1245.2467"
       id="tspan3085">GOLF</tspan></text>
  <text
     x="2049.4849"
     y="-1117.4462"
     transform="matrix(0.70710678,0.70710678,-0.70710678,0.70710678,0,0)"
     id="text3087"
     xml:space="preserve"
     style="font-size:40px;font-style:normal;font-weight:normal;line-height:125%;letter-spacing:0px;word-spacing:0px;fill:#000000;fill-opacity:1;stroke:none;font-family:Sans"><tspan
       x="2049.4849"
       y="-1117.4462"
       id="tspan3089">PLAYLIST</tspan></text>
  <text
     x="2958.7029"
     y="-1794.3508"
     transform="matrix(0.70710678,0.70710678,-0.70710678,0.70710678,0,0)"
     id="text3091"
     xml:space="preserve"
     style="font-size:40px;font-style:normal;font-weight:normal;line-height:125%;letter-spacing:0px;word-spacing:0px;fill:#000000;fill-opacity:1;stroke:none;font-family:Sans"><tspan
       x="2958.7029"
       y="-1794.3508"
       id="tspan3093">SELECTOR</tspan></text>
  <path
     d="m 3112.5536,832.2922 a 17.142857,17.142857 0 1 0 0,-34.2857 17.142857,17.142857 0 1 0 0,34.2857 z"
     id="path3095"
     style="fill:#ffffff;fill-opacity:1;stroke:#ff3300;stroke-width:10;stroke-miterlimit:4;stroke-opacity:1;stroke-dasharray:none" />
  <path
     d="m 3330.7623,770.3633 a 17.142857,17.142857 0 1 0 0,-34.2857 17.142857,17.142857 0 1 0 0,34.2857 z"
     id="path3097"
     style="fill:#ffffff;fill-opacity:1;stroke:#ff3300;stroke-width:10;stroke-miterlimit:4;stroke-opacity:1;stroke-dasharray:none" />
  <path
     d="m 3115.9906,1122.0853 a 17.142857,17.142857 0 1 0 0,-34.2857 17.142857,17.142857 0 1 0 0,34.2857 z"
     id="path3099"
     style="fill:#ffffff;fill-opacity:1;stroke:#0083d7;stroke-width:10;stroke-miterlimit:4;stroke-opacity:1;stroke-dasharray:none" />
  <path
     d="m 3291.2556,1172.2183 a 17.142857,17.142857 0 1 0 0,-34.2857 17.142857,17.142857 0 1 0 0,34.2857 z"
     id="path3101"
     style="fill:#ffffff;fill-opacity:1;stroke:#0083d7;stroke-width:10;stroke-miterlimit:4;stroke-opacity:1;stroke-dasharray:none" />
  <text
     x="2897.314"
     y="-1257.3289"
     transform="matrix(0.70710678,0.70710678,-0.70710678,0.70710678,0,0)"
     id="text3107"
     xml:space="preserve"
     style="font-size:40px;font-style:normal;font-weight:normal;line-height:125%;letter-spacing:0px;word-spacing:0px;fill:#000000;fill-opacity:1;stroke:none;font-family:Sans"><tspan
       x="2897.314"
       y="-1257.3289"
       id="tspan3109">GRAPH</tspan></text>
  <text
     x="2378.3831"
     y="-230.9642"
     transform="matrix(0.70710678,0.70710678,-0.70710678,0.70710678,0,0)"
     id="text3115"
     xml:space="preserve"
     style="font-size:40px;font-style:normal;font-weight:normal;line-height:125%;letter-spacing:0px;word-spacing:0px;fill:#000000;fill-opacity:1;stroke:none;font-family:Sans"><tspan
       x="2378.3831"
       y="-230.9642"
       id="tspan3117">PROMISE</tspan></text>
  <text
     x="2695.2083"
     y="-985.70825"
     transform="matrix(0.70710678,0.70710678,-0.70710678,0.70710678,0,0)"
     id="text3119"
     xml:space="preserve"
     style="font-size:40px;font-style:normal;font-weight:normal;line-height:125%;letter-spacing:0px;word-spacing:0px;fill:#000000;fill-opacity:1;stroke:none;font-family:Sans"><tspan
       x="2695.2083"
       y="-985.70825"
       id="tspan3121">KENYA</tspan></text>
  <text
     x="2590.4814"
     y="-2052.9104"
     transform="matrix(0.70710678,0.70710678,-0.70710678,0.70710678,0,0)"
     id="text3123"
     xml:space="preserve"
     style="font-size:40px;font-style:normal;font-weight:normal;line-height:125%;letter-spacing:0px;word-spacing:0px;fill:#000000;fill-opacity:1;stroke:none;font-family:Sans"><tspan
       x="2590.4814"
       y="-2052.9104"
       id="tspan3125">SHIPPING</tspan></text>
  <path
     d="m 3319.1028,334.6483 a 17.142857,17.142857 0 1 0 0,-34.2857 17.142857,17.142857 0 1 0 0,34.2857 z"
     id="path3127"
     style="fill:#ffffff;fill-opacity:1;stroke:#009900;stroke-width:10;stroke-miterlimit:4;stroke-opacity:1;stroke-dasharray:none" />
  <text
     x="3184.3672"
     y="-1460.9565"
     transform="matrix(0.70710678,0.70710678,-0.70710678,0.70710678,0,0)"
     id="text3129"
     xml:space="preserve"
     style="font-size:40px;font-style:normal;font-weight:normal;line-height:125%;letter-spacing:0px;word-spacing:0px;fill:#000000;fill-opacity:1;stroke:none;font-family:Sans"><tspan
       x="3184.3672"
       y="-1460.9565"
       id="tspan3131">INTENT</tspan></text>
  <path
     d="m 2454.1722,50.6459 a 17.1429,17.1429 0 0 0 0,-34.2858 17.1429,17.1429 0 1 0 0,34.2858 z"
     id="path3896"
     style="fill:#ffffff;fill-opacity:1;stroke:#009900;stroke-width:10;stroke-miterlimit:4;stroke-opacity:1;stroke-dasharray:none" />
  <text
     x="1920.9939"
     y="-1754.775"
     transform="matrix(0.70710678,0.70710678,-0.70710678,0.70710678,0,0)"
     id="text3898"
     xml:space="preserve"
     style="font-size:40px;font-style:normal;font-weight:normal;line-height:125%;letter-spacing:0px;word-spacing:0px;fill:#000000;fill-opacity:1;stroke:none;font-family:Sans"><tspan
       x="1920.9939"
       y="-1754.775"
       id="tspan3900">SCRAPING</tspan></text>
  <text
     x="2573.4558"
     y="-609.4469"
     transform="matrix(0.70710678,0.70710678,-0.70710678,0.70710678,0,0)"
     id="text3271"
     xml:space="preserve"
     style="font-size:40px;font-style:normal;font-weight:normal;line-height:125%;letter-spacing:0px;word-spacing:0px;fill:#000000;fill-opacity:1;stroke:none;font-family:Sans"><tspan
       x="2573.4558"
       y="-609.4469"
       id="tspan3273">HEX</tspan></text>
</svg>
